<?xml version="1.0" encoding="UTF-8"?>
<svg width="41px" height="40px" viewBox="0 0 41 40" version="1.1" xmlns="http://www.w3.org/2000/svg" xmlns:xlink="http://www.w3.org/1999/xlink">
    <!-- Generator: Sketch 59.1 (86144) - https://sketch.com -->
    <title>floatingipicon</title>
    <desc>Created with Sketch.</desc>
    <defs>
        <linearGradient x1="49.597%" y1="113.983%" x2="49.597%" y2="-14.334%" id="linearGradient-1">
            <stop stop-color="#0069FF" stop-opacity="0.5" offset="0%"></stop>
            <stop stop-color="#0069FF" stop-opacity="0" offset="100%"></stop>
        </linearGradient>
    </defs>
    <g id="Page-1" stroke="none" stroke-width="1" fill="none" fill-rule="evenodd">
        <g id="floatingipicon" transform="translate(1.000000, 1.000000)">
            <path d="M34.815,26.634 L34.815,21.498 C34.815,19.405 33.102,17.788 31.105,17.788 L25.683,17.788 C22.353,17.788 19.595,15.029 19.595,11.7 L19.595,3.33" id="Path" stroke="#0069FF" stroke-width="2"></path>
            <path d="M4.185,26.634 L4.185,21.498 C4.185,19.405 5.898,17.788 7.895,17.788 L13.317,17.788 C16.647,17.788 19.405,15.029 19.405,11.7 L19.405,3.33" id="Path" stroke="#0069FF" stroke-width="2" opacity="0.3"></path>
            <path d="M4.185,26.634 C4.185,26.634 0,29.678 0,32.912 C0,35.195 1.902,37.098 4.185,37.098 C6.468,37.098 8.371,35.195 8.371,32.912 C8.466,29.868 4.185,26.634 4.185,26.634 Z" id="Path" stroke="#0069FF" stroke-width="2" fill="#FFFFFF" fill-rule="nonzero"></path>
            <path d="M34.815,27.776 L34.815,21.593 C34.815,19.5 33.102,17.883 31.105,17.883 L25.683,17.883 C22.353,17.883 19.595,15.124 19.595,11.795 L19.595,4.28" id="Path" stroke="url(#linearGradient-1)" stroke-width="7" stroke-linecap="round"></path>
            <circle id="Oval" stroke="#120078" stroke-width="2" fill="#FFFFFF" fill-rule="nonzero" cx="19.5" cy="3.329" r="3.329"></circle>
            <path d="M34.815,26.634 C34.815,26.634 30.629,29.678 30.629,32.912 C30.629,35.195 32.532,37.098 34.815,37.098 C37.098,37.098 39,35.195 39,32.912 C39,29.868 34.815,26.634 34.815,26.634 Z" id="Path" stroke="#120078" stroke-width="2" fill="#FFFFFF" fill-rule="nonzero"></path>
            <circle id="Oval" fill="#0069FF" fill-rule="nonzero" cx="34.815" cy="33.102" r="1.237"></circle>
        </g>
    </g>
</svg>