<?xml version="1.0" encoding="UTF-8"?>
<svg width="38px" height="41px" viewBox="0 0 38 41" version="1.1" xmlns="http://www.w3.org/2000/svg" xmlns:xlink="http://www.w3.org/1999/xlink">
    <!-- Generator: Sketch 59.1 (86144) - https://sketch.com -->
    <title>paybillicon</title>
    <desc>Created with Sketch.</desc>
    <defs>
        <linearGradient x1="50.014%" y1="98.9%" x2="50.014%" y2="50.25%" id="linearGradient-1">
            <stop stop-color="#0069FF" stop-opacity="0.3" offset="0%"></stop>
            <stop stop-color="#0069FF" stop-opacity="0.2" offset="36%"></stop>
            <stop stop-color="#0069FF" stop-opacity="0" offset="100%"></stop>
        </linearGradient>
    </defs>
    <g id="Page-1" stroke="none" stroke-width="1" fill="none" fill-rule="evenodd">
        <g id="paybillicon" transform="translate(1.000000, 0.000000)">
            <polygon id="Path" fill="url(#linearGradient-1)" fill-rule="nonzero" points="35.22 40.6 8.52 40.6 8.28 31.65 0.41 31.89 0.41 0.6 35.22 0.6"></polygon>
            <polyline id="Path" stroke="#0069FF" stroke-width="2" points="0 31.72 8.23 31.72 8.23 39.94"></polyline>
            <path d="M0,14.01 L35.63,14.01 L35.63,25.86 L0,25.86 L0,14.01 Z M35.63,19.94 L0,19.94" id="Shape" stroke="#0069FF" stroke-width="2" opacity="0.3"></path>
            <line x1="6.19" y1="8.15" x2="14.66" y2="8.15" id="Path" stroke="#120078" stroke-width="2"></line>
            <line x1="22.42" y1="31.86" x2="29.2" y2="31.86" id="Path" stroke="#0069FF" stroke-width="2"></line>
            <path d="M9.04,14.08 L9.04,25.93 M18.21,14.08 L18.21,25.93" id="Shape" stroke="#0069FF" stroke-width="2" opacity="0.3"></path>
            <polyline id="Path" stroke="#0069FF" stroke-width="2" points="35.63 14.88 35.63 1 0 1 0 31.72 8.23 39.94 35.63 39.94 35.63 13.16"></polyline>
            <polyline id="Path" stroke="#120078" stroke-width="2" points="35.63 38.83 35.63 1 0.97 1"></polyline>
        </g>
    </g>
</svg>